<?xml version="1.0" standalone="no"?>
<!DOCTYPE svg PUBLIC "-//W3C//DTD SVG 20010904//EN"
 "http://www.w3.org/TR/2001/REC-SVG-20010904/DTD/svg10.dtd">
<svg version="1.0" xmlns="http://www.w3.org/2000/svg"
 width="220.000000pt" height="257.000000pt" viewBox="0 0 220.000000 257.000000"
 preserveAspectRatio="xMidYMid meet">
<metadata>
Created by potrace 1.15, written by Peter Selinger 2001-2017
</metadata>
<g transform="translate(0.000000,257.000000) scale(0.100000,-0.100000)"
fill="#87ceeb" stroke="#87ceeb">
<path d="M1297 2400 c-7 -81 -39 -143 -111 -216 -178 -178 -555 -299 -994
-320 l-142 -7 40 -34 c53 -46 84 -100 113 -203 67 -231 60 -510 -19 -727 -26
-73 -92 -163 -120 -163 -8 0 -14 -4 -14 -10 0 -6 31 -10 73 -10 248 0 563 -58
772 -141 239 -96 375 -223 392 -368 3 -28 10 -51 14 -51 5 0 9 516 9 1155 0
635 -2 1155 -4 1155 -2 0 -6 -27 -9 -60z m2 -1127 c-1 -685 -4 -1046 -11
-1023 -15 58 -81 142 -154 198 -198 151 -531 247 -929 268 l-126 7 26 24 c66
62 115 185 140 350 44 294 -24 633 -148 734 -19 15 -12 16 109 23 333 18 646
98 847 217 86 51 196 157 223 216 10 23 20 43 22 43 1 0 2 -476 1 -1057z"/>
</g>
</svg>
